{
	"asset":{
		"generator":"Khronos glTF Blender I/O v4.3.47",
		"version":"2.0"
	},
	"extensionsUsed":[
		"EXT_texture_webp"
	],
	"extensionsRequired":[
		"EXT_texture_webp"
	],
	"scene":0,
	"scenes":[
		{
			"name":"Scene",
			"nodes":[
				5
			]
		}
	],
	"nodes":[
		{
			"name":"Bone.002",
			"rotation":[
				0,
				-1.4210854715202004e-14,
				0,
				1
			],
			"translation":[
				-0.03999999538064003,
				4.656612873077393e-10,
				-9.489820484986922e-09
			]
		},
		{
			"children":[
				0
			],
			"name":"Bone.001",
			"rotation":[
				0,
				-1.4210854715202004e-14,
				0,
				1
			],
			"translation":[
				-0.03999999538064003,
				4.656612873077393e-10,
				-9.523784427756254e-09
			]
		},
		{
			"children":[
				1
			],
			"name":"Bone",
			"rotation":[
				0,
				1.1920928955078125e-07,
				0,
				1
			],
			"translation":[
				0.08000000566244125,
				-0.003253620583564043,
				-0.0003221207589376718
			]
		},
		{
			"name":"neutral_bone",
			"rotation":[
				-0.7071067690849304,
				0,
				0,
				0.7071067690849304
			]
		},
		{
			"mesh":0,
			"name":"Plane",
			"skin":0
		},
		{
			"children":[
				4,
				2,
				3
			],
			"name":"Armature",
			"rotation":[
				0,
				-1,
				0,
				4.371139183945161e-08
			],
			"scale":[
				17.030412673950195,
				17.030412673950195,
				17.030412673950195
			],
			"translation":[
				1.5729613304138184,
				2.944469451904297e-05,
				-8.549913763999939e-05
			]
		}
	],
	"animations":[
		{
			"channels":[
				{
					"sampler":0,
					"target":{
						"node":2,
						"path":"translation"
					}
				},
				{
					"sampler":1,
					"target":{
						"node":2,
						"path":"rotation"
					}
				},
				{
					"sampler":2,
					"target":{
						"node":2,
						"path":"scale"
					}
				},
				{
					"sampler":3,
					"target":{
						"node":1,
						"path":"translation"
					}
				},
				{
					"sampler":4,
					"target":{
						"node":1,
						"path":"rotation"
					}
				},
				{
					"sampler":5,
					"target":{
						"node":1,
						"path":"scale"
					}
				},
				{
					"sampler":6,
					"target":{
						"node":0,
						"path":"translation"
					}
				},
				{
					"sampler":7,
					"target":{
						"node":0,
						"path":"rotation"
					}
				},
				{
					"sampler":8,
					"target":{
						"node":0,
						"path":"scale"
					}
				},
				{
					"sampler":9,
					"target":{
						"node":5,
						"path":"translation"
					}
				},
				{
					"sampler":10,
					"target":{
						"node":5,
						"path":"rotation"
					}
				},
				{
					"sampler":11,
					"target":{
						"node":5,
						"path":"scale"
					}
				}
			],
			"name":"ArmatureAction",
			"samplers":[
				{
					"input":13,
					"interpolation":"STEP",
					"output":14
				},
				{
					"input":13,
					"interpolation":"STEP",
					"output":15
				},
				{
					"input":13,
					"interpolation":"STEP",
					"output":16
				},
				{
					"input":13,
					"interpolation":"STEP",
					"output":17
				},
				{
					"input":18,
					"interpolation":"LINEAR",
					"output":19
				},
				{
					"input":13,
					"interpolation":"STEP",
					"output":20
				},
				{
					"input":13,
					"interpolation":"LINEAR",
					"output":21
				},
				{
					"input":18,
					"interpolation":"LINEAR",
					"output":22
				},
				{
					"input":13,
					"interpolation":"LINEAR",
					"output":23
				},
				{
					"input":18,
					"interpolation":"LINEAR",
					"output":24
				},
				{
					"input":18,
					"interpolation":"LINEAR",
					"output":25
				},
				{
					"input":13,
					"interpolation":"STEP",
					"output":26
				}
			]
		},
		{
			"channels":[
				{
					"sampler":0,
					"target":{
						"node":4,
						"path":"translation"
					}
				},
				{
					"sampler":1,
					"target":{
						"node":4,
						"path":"rotation"
					}
				},
				{
					"sampler":2,
					"target":{
						"node":4,
						"path":"scale"
					}
				}
			],
			"name":"PlaneAction.001",
			"samplers":[
				{
					"input":27,
					"interpolation":"STEP",
					"output":28
				},
				{
					"input":27,
					"interpolation":"LINEAR",
					"output":29
				},
				{
					"input":27,
					"interpolation":"STEP",
					"output":30
				}
			]
		}
	],
	"materials":[
		{
			"doubleSided":true,
			"name":"Front",
			"pbrMetallicRoughness":{
				"baseColorTexture":{
					"index":0
				},
				"metallicFactor":0,
				"roughnessFactor":0.5
			}
		},
		{
			"doubleSided":true,
			"name":"Back",
			"pbrMetallicRoughness":{
				"baseColorTexture":{
					"index":1
				},
				"metallicFactor":0,
				"roughnessFactor":0.5
			}
		}
	],
	"meshes":[
		{
			"name":"Plane",
			"primitives":[
				{
					"attributes":{
						"POSITION":0,
						"NORMAL":1,
						"TEXCOORD_0":2,
						"JOINTS_0":3,
						"WEIGHTS_0":4
					},
					"indices":5,
					"material":0
				},
				{
					"attributes":{
						"POSITION":6,
						"NORMAL":7,
						"TEXCOORD_0":8,
						"JOINTS_0":9,
						"WEIGHTS_0":10
					},
					"indices":11,
					"material":1
				}
			]
		}
	],
	"textures":[
		{
			"extensions":{
				"EXT_texture_webp":{
					"source":0
				}
			},
			"sampler":0
		},
		{
			"extensions":{
				"EXT_texture_webp":{
					"source":1
				}
			},
			"sampler":1
		}
	],
	"images":[
		{
			"mimeType":"image/webp",
			"name":"ballot_front",
			"uri":"ballot_front.webp"
		},
		{
			"mimeType":"image/webp",
			"name":"ballot_back",
			"uri":"ballot_back.webp"
		}
	],
	"skins":[
		{
			"inverseBindMatrices":12,
			"joints":[
				2,
				1,
				0,
				3
			],
			"name":"Armature"
		}
	],
	"accessors":[
		{
			"bufferView":0,
			"componentType":5126,
			"count":44,
			"max":[
				2.2486062049865723,
				1.0205401182174683,
				0.02060788683593273
			],
			"min":[
				0.03465229645371437,
				-0.001284566824324429,
				0.0035772030241787434
			],
			"type":"VEC3"
		},
		{
			"bufferView":1,
			"componentType":5126,
			"count":44,
			"type":"VEC3"
		},
		{
			"bufferView":2,
			"componentType":5126,
			"count":44,
			"type":"VEC2"
		},
		{
			"bufferView":3,
			"componentType":5121,
			"count":44,
			"type":"VEC4"
		},
		{
			"bufferView":4,
			"componentType":5126,
			"count":44,
			"type":"VEC4"
		},
		{
			"bufferView":5,
			"componentType":5123,
			"count":84,
			"type":"SCALAR"
		},
		{
			"bufferView":6,
			"componentType":5126,
			"count":16,
			"max":[
				2.2486062049865723,
				1.0205401182174683,
				0.003577473806217313
			],
			"min":[
				0.03465229645371437,
				-0.001284565543755889,
				0.0035772030241787434
			],
			"type":"VEC3"
		},
		{
			"bufferView":7,
			"componentType":5126,
			"count":16,
			"type":"VEC3"
		},
		{
			"bufferView":8,
			"componentType":5126,
			"count":16,
			"type":"VEC2"
		},
		{
			"bufferView":9,
			"componentType":5121,
			"count":16,
			"type":"VEC4"
		},
		{
			"bufferView":10,
			"componentType":5126,
			"count":16,
			"type":"VEC4"
		},
		{
			"bufferView":11,
			"componentType":5123,
			"count":24,
			"type":"SCALAR"
		},
		{
			"bufferView":12,
			"componentType":5126,
			"count":4,
			"type":"MAT4"
		},
		{
			"bufferView":13,
			"componentType":5126,
			"count":2,
			"max":[
				6.25
			],
			"min":[
				0
			],
			"type":"SCALAR"
		},
		{
			"bufferView":14,
			"componentType":5126,
			"count":2,
			"type":"VEC3"
		},
		{
			"bufferView":15,
			"componentType":5126,
			"count":2,
			"type":"VEC4"
		},
		{
			"bufferView":16,
			"componentType":5126,
			"count":2,
			"type":"VEC3"
		},
		{
			"bufferView":17,
			"componentType":5126,
			"count":2,
			"type":"VEC3"
		},
		{
			"bufferView":18,
			"componentType":5126,
			"count":151,
			"max":[
				6.25
			],
			"min":[
				0
			],
			"type":"SCALAR"
		},
		{
			"bufferView":19,
			"componentType":5126,
			"count":151,
			"type":"VEC4"
		},
		{
			"bufferView":20,
			"componentType":5126,
			"count":2,
			"type":"VEC3"
		},
		{
			"bufferView":21,
			"componentType":5126,
			"count":2,
			"type":"VEC3"
		},
		{
			"bufferView":22,
			"componentType":5126,
			"count":151,
			"type":"VEC4"
		},
		{
			"bufferView":23,
			"componentType":5126,
			"count":2,
			"type":"VEC3"
		},
		{
			"bufferView":24,
			"componentType":5126,
			"count":151,
			"type":"VEC3"
		},
		{
			"bufferView":25,
			"componentType":5126,
			"count":151,
			"type":"VEC4"
		},
		{
			"bufferView":26,
			"componentType":5126,
			"count":2,
			"type":"VEC3"
		},
		{
			"bufferView":27,
			"componentType":5126,
			"count":2,
			"max":[
				6.25
			],
			"min":[
				5
			],
			"type":"SCALAR"
		},
		{
			"bufferView":28,
			"componentType":5126,
			"count":2,
			"type":"VEC3"
		},
		{
			"bufferView":29,
			"componentType":5126,
			"count":2,
			"type":"VEC4"
		},
		{
			"bufferView":30,
			"componentType":5126,
			"count":2,
			"type":"VEC3"
		}
	],
	"bufferViews":[
		{
			"buffer":0,
			"byteLength":528,
			"byteOffset":0,
			"target":34962
		},
		{
			"buffer":0,
			"byteLength":528,
			"byteOffset":528,
			"target":34962
		},
		{
			"buffer":0,
			"byteLength":352,
			"byteOffset":1056,
			"target":34962
		},
		{
			"buffer":0,
			"byteLength":176,
			"byteOffset":1408,
			"target":34962
		},
		{
			"buffer":0,
			"byteLength":704,
			"byteOffset":1584,
			"target":34962
		},
		{
			"buffer":0,
			"byteLength":168,
			"byteOffset":2288,
			"target":34963
		},
		{
			"buffer":0,
			"byteLength":192,
			"byteOffset":2456,
			"target":34962
		},
		{
			"buffer":0,
			"byteLength":192,
			"byteOffset":2648,
			"target":34962
		},
		{
			"buffer":0,
			"byteLength":128,
			"byteOffset":2840,
			"target":34962
		},
		{
			"buffer":0,
			"byteLength":64,
			"byteOffset":2968,
			"target":34962
		},
		{
			"buffer":0,
			"byteLength":256,
			"byteOffset":3032,
			"target":34962
		},
		{
			"buffer":0,
			"byteLength":48,
			"byteOffset":3288,
			"target":34963
		},
		{
			"buffer":0,
			"byteLength":256,
			"byteOffset":3336
		},
		{
			"buffer":0,
			"byteLength":8,
			"byteOffset":3592
		},
		{
			"buffer":0,
			"byteLength":24,
			"byteOffset":3600
		},
		{
			"buffer":0,
			"byteLength":32,
			"byteOffset":3624
		},
		{
			"buffer":0,
			"byteLength":24,
			"byteOffset":3656
		},
		{
			"buffer":0,
			"byteLength":24,
			"byteOffset":3680
		},
		{
			"buffer":0,
			"byteLength":604,
			"byteOffset":3704
		},
		{
			"buffer":0,
			"byteLength":2416,
			"byteOffset":4308
		},
		{
			"buffer":0,
			"byteLength":24,
			"byteOffset":6724
		},
		{
			"buffer":0,
			"byteLength":24,
			"byteOffset":6748
		},
		{
			"buffer":0,
			"byteLength":2416,
			"byteOffset":6772
		},
		{
			"buffer":0,
			"byteLength":24,
			"byteOffset":9188
		},
		{
			"buffer":0,
			"byteLength":1812,
			"byteOffset":9212
		},
		{
			"buffer":0,
			"byteLength":2416,
			"byteOffset":11024
		},
		{
			"buffer":0,
			"byteLength":24,
			"byteOffset":13440
		},
		{
			"buffer":0,
			"byteLength":8,
			"byteOffset":13464
		},
		{
			"buffer":0,
			"byteLength":24,
			"byteOffset":13472
		},
		{
			"buffer":0,
			"byteLength":32,
			"byteOffset":13496
		},
		{
			"buffer":0,
			"byteLength":24,
			"byteOffset":13528
		}
	],
	"samplers":[
		{
			"magFilter":9729,
			"minFilter":9987
		},
		{
			"magFilter":9729,
			"minFilter":9987,
			"wrapS":33071,
			"wrapT":33071
		}
	],
	"buffers":[
		{
			"byteLength":13552,
			"uri":"ballot.bin"
		}
	]
}
