{
	"asset":{
		"generator":"Khronos glTF Blender I/O v4.3.47",
		"version":"2.0"
	},
	"scene":0,
	"scenes":[
		{
			"name":"Scene",
			"nodes":[
				0,
				1,
				2,
				3,
				4,
				5,
				6
			]
		}
	],
	"nodes":[
		{
			"mesh":0,
			"name":"Cube",
			"translation":[
				1.6575345993041992,
				1.3884871006011963,
				3.561016321182251
			]
		},
		{
			"mesh":1,
			"name":"Cylinder",
			"rotation":[
				0,
				0,
				1,
				4.371138828673793e-08
			],
			"translation":[
				3.309357166290283,
				-0.00867152214050293,
				6.9283833503723145
			]
		},
		{
			"mesh":2,
			"name":"Cylinder.001",
			"rotation":[
				0,
				0,
				1,
				4.371138828673793e-08
			],
			"translation":[
				0.04767845198512077,
				-0.00867152214050293,
				6.9283833503723145
			]
		},
		{
			"mesh":3,
			"name":"Cylinder.002",
			"rotation":[
				0,
				0,
				0.7101443409919739,
				0.7040562033653259
			],
			"scale":[
				1.0000280141830444,
				1.3133223056793213,
				1
			],
			"translation":[
				1.683792233467102,
				-0.00867152214050293,
				6.9283833503723145
			]
		},
		{
			"mesh":4,
			"name":"Cylinder.003",
			"rotation":[
				0,
				0,
				0.7101443409919739,
				0.7040562033653259
			],
			"scale":[
				1.0000280141830444,
				1.3133223056793213,
				1
			],
			"translation":[
				1.683792233467102,
				-0.00867152214050293,
				0.18695998191833496
			]
		},
		{
			"mesh":5,
			"name":"Cylinder.004",
			"rotation":[
				0,
				0,
				1,
				4.371138828673793e-08
			],
			"translation":[
				0.04767845198512077,
				-0.00867152214050293,
				0.18695998191833496
			]
		},
		{
			"mesh":6,
			"name":"Cylinder.005",
			"rotation":[
				0,
				0,
				1,
				4.371138828673793e-08
			],
			"translation":[
				3.309357166290283,
				-0.00867152214050293,
				0.18695998191833496
			]
		}
	],
	"materials":[
		{
			"doubleSided":true,
			"name":"Material.002",
			"pbrMetallicRoughness":{
				"baseColorFactor":[
					0.020288417115807533,
					0.018500231206417084,
					0.0331047885119915,
					1
				],
				"metallicFactor":0,
				"roughnessFactor":0.5
			}
		},
		{
			"doubleSided":true,
			"name":"Material.001",
			"pbrMetallicRoughness":{
				"baseColorFactor":[
					0.020288417115807533,
					0.018500231206417084,
					0.0331047885119915,
					1
				],
				"metallicFactor":0,
				"roughnessFactor":0.5
			}
		},
		{
			"doubleSided":true,
			"name":"Material.003",
			"pbrMetallicRoughness":{
				"baseColorFactor":[
					0.020288417115807533,
					0.018500231206417084,
					0.0331047885119915,
					1
				],
				"metallicFactor":0,
				"roughnessFactor":0.5
			}
		},
		{
			"doubleSided":true,
			"name":"Material.005",
			"pbrMetallicRoughness":{
				"baseColorFactor":[
					0.020288417115807533,
					0.018500231206417084,
					0.0331047885119915,
					1
				],
				"metallicFactor":0,
				"roughnessFactor":0.5
			}
		},
		{
			"doubleSided":true,
			"name":"Material.006",
			"pbrMetallicRoughness":{
				"baseColorFactor":[
					0.020288417115807533,
					0.018500231206417084,
					0.0331047885119915,
					1
				],
				"metallicFactor":0,
				"roughnessFactor":0.5
			}
		},
		{
			"doubleSided":true,
			"name":"Material.004",
			"pbrMetallicRoughness":{
				"baseColorFactor":[
					0.020288417115807533,
					0.018500231206417084,
					0.0331047885119915,
					1
				],
				"metallicFactor":0,
				"roughnessFactor":0.5
			}
		}
	],
	"meshes":[
		{
			"name":"Cube.001",
			"primitives":[
				{
					"attributes":{
						"POSITION":0,
						"NORMAL":1,
						"TEXCOORD_0":2
					},
					"indices":3
				}
			]
		},
		{
			"name":"Cylinder",
			"primitives":[
				{
					"attributes":{
						"POSITION":4,
						"NORMAL":5,
						"TEXCOORD_0":6
					},
					"indices":7,
					"material":0
				}
			]
		},
		{
			"name":"Cylinder.001",
			"primitives":[
				{
					"attributes":{
						"POSITION":8,
						"NORMAL":9,
						"TEXCOORD_0":10
					},
					"indices":7,
					"material":1
				}
			]
		},
		{
			"name":"Cylinder.002",
			"primitives":[
				{
					"attributes":{
						"POSITION":11,
						"NORMAL":12,
						"TEXCOORD_0":13
					},
					"indices":7,
					"material":2
				}
			]
		},
		{
			"name":"Cylinder.003",
			"primitives":[
				{
					"attributes":{
						"POSITION":14,
						"NORMAL":15,
						"TEXCOORD_0":16
					},
					"indices":7,
					"material":3
				}
			]
		},
		{
			"name":"Cylinder.004",
			"primitives":[
				{
					"attributes":{
						"POSITION":17,
						"NORMAL":18,
						"TEXCOORD_0":19
					},
					"indices":7,
					"material":4
				}
			]
		},
		{
			"name":"Cylinder.005",
			"primitives":[
				{
					"attributes":{
						"POSITION":20,
						"NORMAL":21,
						"TEXCOORD_0":22
					},
					"indices":7,
					"material":5
				}
			]
		}
	],
	"accessors":[
		{
			"bufferView":0,
			"componentType":5126,
			"count":24,
			"max":[
				1.7870054244995117,
				0.16849684715270996,
				3.5353004932403564
			],
			"min":[
				-1.7870054244995117,
				-0.16849684715270996,
				-3.5353004932403564
			],
			"type":"VEC3"
		},
		{
			"bufferView":1,
			"componentType":5126,
			"count":24,
			"type":"VEC3"
		},
		{
			"bufferView":2,
			"componentType":5126,
			"count":24,
			"type":"VEC2"
		},
		{
			"bufferView":3,
			"componentType":5123,
			"count":36,
			"type":"SCALAR"
		},
		{
			"bufferView":4,
			"componentType":5126,
			"count":192,
			"max":[
				0.06485307216644287,
				1.2286617755889893,
				0.08403778076171875
			],
			"min":[
				-0.06485307216644287,
				-1.2286617755889893,
				-0.08403778076171875
			],
			"type":"VEC3"
		},
		{
			"bufferView":5,
			"componentType":5126,
			"count":192,
			"type":"VEC3"
		},
		{
			"bufferView":6,
			"componentType":5126,
			"count":192,
			"type":"VEC2"
		},
		{
			"bufferView":7,
			"componentType":5123,
			"count":372,
			"type":"SCALAR"
		},
		{
			"bufferView":8,
			"componentType":5126,
			"count":192,
			"max":[
				0.06485307216644287,
				1.2286617755889893,
				0.08403778076171875
			],
			"min":[
				-0.06485307216644287,
				-1.2286617755889893,
				-0.08403778076171875
			],
			"type":"VEC3"
		},
		{
			"bufferView":9,
			"componentType":5126,
			"count":192,
			"type":"VEC3"
		},
		{
			"bufferView":10,
			"componentType":5126,
			"count":192,
			"type":"VEC2"
		},
		{
			"bufferView":11,
			"componentType":5126,
			"count":192,
			"max":[
				0.06485307216644287,
				1.2286617755889893,
				0.08403778076171875
			],
			"min":[
				-0.06485307216644287,
				-1.2286617755889893,
				-0.08403778076171875
			],
			"type":"VEC3"
		},
		{
			"bufferView":12,
			"componentType":5126,
			"count":192,
			"type":"VEC3"
		},
		{
			"bufferView":13,
			"componentType":5126,
			"count":192,
			"type":"VEC2"
		},
		{
			"bufferView":14,
			"componentType":5126,
			"count":192,
			"max":[
				0.06485307216644287,
				1.2286617755889893,
				0.08403778076171875
			],
			"min":[
				-0.06485307216644287,
				-1.2286617755889893,
				-0.08403778076171875
			],
			"type":"VEC3"
		},
		{
			"bufferView":15,
			"componentType":5126,
			"count":192,
			"type":"VEC3"
		},
		{
			"bufferView":16,
			"componentType":5126,
			"count":192,
			"type":"VEC2"
		},
		{
			"bufferView":17,
			"componentType":5126,
			"count":192,
			"max":[
				0.06485307216644287,
				1.2286617755889893,
				0.08403778076171875
			],
			"min":[
				-0.06485307216644287,
				-1.2286617755889893,
				-0.08403778076171875
			],
			"type":"VEC3"
		},
		{
			"bufferView":18,
			"componentType":5126,
			"count":192,
			"type":"VEC3"
		},
		{
			"bufferView":19,
			"componentType":5126,
			"count":192,
			"type":"VEC2"
		},
		{
			"bufferView":20,
			"componentType":5126,
			"count":192,
			"max":[
				0.06485307216644287,
				1.2286617755889893,
				0.08403778076171875
			],
			"min":[
				-0.06485307216644287,
				-1.2286617755889893,
				-0.08403778076171875
			],
			"type":"VEC3"
		},
		{
			"bufferView":21,
			"componentType":5126,
			"count":192,
			"type":"VEC3"
		},
		{
			"bufferView":22,
			"componentType":5126,
			"count":192,
			"type":"VEC2"
		}
	],
	"bufferViews":[
		{
			"buffer":0,
			"byteLength":288,
			"byteOffset":0,
			"target":34962
		},
		{
			"buffer":0,
			"byteLength":288,
			"byteOffset":288,
			"target":34962
		},
		{
			"buffer":0,
			"byteLength":192,
			"byteOffset":576,
			"target":34962
		},
		{
			"buffer":0,
			"byteLength":72,
			"byteOffset":768,
			"target":34963
		},
		{
			"buffer":0,
			"byteLength":2304,
			"byteOffset":840,
			"target":34962
		},
		{
			"buffer":0,
			"byteLength":2304,
			"byteOffset":3144,
			"target":34962
		},
		{
			"buffer":0,
			"byteLength":1536,
			"byteOffset":5448,
			"target":34962
		},
		{
			"buffer":0,
			"byteLength":744,
			"byteOffset":6984,
			"target":34963
		},
		{
			"buffer":0,
			"byteLength":2304,
			"byteOffset":7728,
			"target":34962
		},
		{
			"buffer":0,
			"byteLength":2304,
			"byteOffset":10032,
			"target":34962
		},
		{
			"buffer":0,
			"byteLength":1536,
			"byteOffset":12336,
			"target":34962
		},
		{
			"buffer":0,
			"byteLength":2304,
			"byteOffset":13872,
			"target":34962
		},
		{
			"buffer":0,
			"byteLength":2304,
			"byteOffset":16176,
			"target":34962
		},
		{
			"buffer":0,
			"byteLength":1536,
			"byteOffset":18480,
			"target":34962
		},
		{
			"buffer":0,
			"byteLength":2304,
			"byteOffset":20016,
			"target":34962
		},
		{
			"buffer":0,
			"byteLength":2304,
			"byteOffset":22320,
			"target":34962
		},
		{
			"buffer":0,
			"byteLength":1536,
			"byteOffset":24624,
			"target":34962
		},
		{
			"buffer":0,
			"byteLength":2304,
			"byteOffset":26160,
			"target":34962
		},
		{
			"buffer":0,
			"byteLength":2304,
			"byteOffset":28464,
			"target":34962
		},
		{
			"buffer":0,
			"byteLength":1536,
			"byteOffset":30768,
			"target":34962
		},
		{
			"buffer":0,
			"byteLength":2304,
			"byteOffset":32304,
			"target":34962
		},
		{
			"buffer":0,
			"byteLength":2304,
			"byteOffset":34608,
			"target":34962
		},
		{
			"buffer":0,
			"byteLength":1536,
			"byteOffset":36912,
			"target":34962
		}
	],
	"buffers":[
		{
			"byteLength":38448,
			"uri":"table.bin"
		}
	]
}
